<svg width="1440" height="884" viewBox="0 0 1440 884" fill="none" xmlns="http://www.w3.org/2000/svg">
<rect x="-2.5" width="1440" height="884" fill="#FFFDFD" fill-opacity="0.88"/>
<path d="M335.5 119.5C384.7 63.1 372.667 16 358.5 0L-70.0001 1C-95.5001 76.1667 -138.8 241.8 -108 303C-69.5001 379.5 82.9999 331.5 148 245.5C213 159.5 274 190 335.5 119.5Z" fill="#FA9189"/>
<path d="M1073.5 883.882H1450C1529 740.382 1677.8 440.082 1641 386.882C1595 320.382 1492 386.882 1450 440.382C1408 493.882 1400 526.382 1287.5 554.882C1175 583.382 1214.5 638.882 1213 686.882C1211.5 734.882 1209 715.382 1144 742.382C1092 763.982 1075.33 845.716 1073.5 883.882Z" fill="#FFE699"/>
</svg>
